<svg xmlns="http://www.w3.org/2000/svg" width="26.014" height="18.21" viewBox="0 0 26.014 18.21">
  <g id="bxs-coupon" transform="translate(-4 -10)">
    <path id="Path_97323" data-name="Path 97323" d="M28.713,10H5.3A1.3,1.3,0,0,0,4,11.3v5.2H5.162a2.7,2.7,0,0,1,2.705,2.164A2.6,2.6,0,0,1,5.3,21.706H4v5.2a1.3,1.3,0,0,0,1.3,1.3H28.713a1.3,1.3,0,0,0,1.3-1.3v-5.2h-1.3a2.6,2.6,0,0,1-2.566-3.038A2.7,2.7,0,0,1,28.852,16.5h1.162V11.3A1.3,1.3,0,0,0,28.713,10ZM15.706,25.608H13.1v-2.6h2.6Zm0-5.2H13.1V17.8h2.6Zm0-5.2H13.1V12.6h2.6Z" fill="#0e60be"/>
  </g>
</svg>
