<svg id="coins" xmlns="http://www.w3.org/2000/svg" width="9.571" height="9.571" viewBox="0 0 9.571 9.571">
  <path id="Path_98717" data-name="Path 98717" d="M5.384,5.982a11.727,11.727,0,0,1-2.561-.252,2.986,2.986,0,0,1-1.477-.636,12.814,12.814,0,0,0,2.841.29A14.352,14.352,0,0,0,6.37,5.225a6.763,6.763,0,0,0,1.668-.439q.636-.28.636-.6v-.6h.3a.8.8,0,0,1,.435.229.531.531,0,0,1,.164.369v.6q0,.327-.561.6a5.6,5.6,0,0,1-1.523.435A12.945,12.945,0,0,1,5.384,5.982Zm-.6-2.393a13,13,0,0,1-1.664-.1,7.8,7.8,0,0,1-1.206-.234,5.039,5.039,0,0,1-.762-.29A1.963,1.963,0,0,1,.72,2.7Q.6,2.589.6,2.542V2.178a4.263,4.263,0,0,0,1.645.584,13.229,13.229,0,0,0,2.542.229,13.229,13.229,0,0,0,2.542-.229,4.263,4.263,0,0,0,1.645-.584v.215q0,.318-.561.594a5.693,5.693,0,0,1-1.523.439A12.583,12.583,0,0,1,4.785,3.589Zm0-1.2a12.583,12.583,0,0,1-2.1-.164A5.693,5.693,0,0,1,1.159,1.79Q.6,1.514.6,1.192t.561-.6A5.6,5.6,0,0,1,2.682.159,12.945,12.945,0,0,1,4.785,0a12.945,12.945,0,0,1,2.1.159A5.6,5.6,0,0,1,8.412.594q.561.276.561.6t-.561.6a5.693,5.693,0,0,1-1.523.439A12.583,12.583,0,0,1,4.785,2.393ZM.3,2.991q0,.318.636.6A6.763,6.763,0,0,0,2.6,4.028a14.352,14.352,0,0,0,2.182.159,14.209,14.209,0,0,0,2-.136,7.9,7.9,0,0,0,1.589-.369l-.033.061A.88.88,0,0,1,8.2,3.9a1.755,1.755,0,0,1-.294.215,3.676,3.676,0,0,1-.5.234,4.739,4.739,0,0,1-.748.22,10.144,10.144,0,0,1-1.061.154,13.942,13.942,0,0,1-1.4.065,12.583,12.583,0,0,1-2.1-.164A5.693,5.693,0,0,1,.561,4.183Q0,3.907,0,3.589v-.6a.579.579,0,0,1,.3-.439Zm0,3.15V6.58q0,.318.636.6A6.763,6.763,0,0,0,2.6,7.617a14.352,14.352,0,0,0,2.182.159,14.462,14.462,0,0,0,1.977-.131,7.921,7.921,0,0,0,1.594-.365q-.14.467-1.337.78a11.281,11.281,0,0,1-2.832.313,12.945,12.945,0,0,1-2.1-.159A5.6,5.6,0,0,1,.561,7.781Q0,7.505,0,7.178v-.6A.579.579,0,0,1,.3,6.141Zm5.084.439A14.04,14.04,0,0,0,7.37,6.444a7.9,7.9,0,0,0,1.584-.369q-.131.467-1.327.785a11.165,11.165,0,0,1-2.841.318,12.945,12.945,0,0,1-2.1-.159,5.6,5.6,0,0,1-1.523-.435Q.6,6.309.6,5.982v-.6a.578.578,0,0,1,.271-.421q.14.047.243.075a.5.5,0,0,0-.178.346q0,.318.626.6a6.6,6.6,0,0,0,1.654.439A14.2,14.2,0,0,0,5.384,6.58Zm3.29,1.2V7.337a.579.579,0,0,1,.3.439v.6q0,.327-.561.6a5.6,5.6,0,0,1-1.523.435,12.945,12.945,0,0,1-2.1.159,11.165,11.165,0,0,1-2.841-.318Q.748,8.935.617,8.468A7.9,7.9,0,0,0,2.2,8.837a14.04,14.04,0,0,0,1.986.136A14.352,14.352,0,0,0,6.37,8.814a6.763,6.763,0,0,0,1.668-.439Q8.674,8.094,8.674,7.776Z" fill="#b1b1b1"/>
</svg>
