<svg xmlns="http://www.w3.org/2000/svg" width="15" height="15" viewBox="0 0 15 15">
  <g id="Group_36497" data-name="Group 36497" transform="translate(-45 -176)">
    <g id="Icon" transform="translate(46.761 117.804)">
      <circle id="Ellipse_20" data-name="Ellipse 20" cx="7.5" cy="7.5" r="7.5" transform="translate(-1.761 58.196)" fill="#ff9100"/>
    </g>
    <g id="box-seam" transform="translate(48.75 179.077)">
      <g id="Group_2415" data-name="Group 2415" transform="translate(0 0.691)">
        <g id="Group_2414" data-name="Group 2414" transform="translate(0 0)">
          <path id="Path_1438" data-name="Path 1438" d="M3.837,1.176a.234.234,0,0,0-.174,0L.865,2.3l1.127.45L4.877,1.592l-1.04-.416Zm1.671.668L2.623,3l1.127.45L6.635,2.3Zm1.523.8L3.984,3.861V7.574L7.031,6.355V2.642ZM3.516,7.574V3.86L.469,2.642V6.356L3.516,7.574ZM3.489.741a.7.7,0,0,1,.522,0L7.353,2.078A.234.234,0,0,1,7.5,2.3v4.06a.469.469,0,0,1-.295.435L3.837,8.138a.234.234,0,0,1-.174,0L.3,6.791A.469.469,0,0,1,0,6.356V2.3a.234.234,0,0,1,.147-.217Z" transform="translate(0 -0.691)" fill="#fff"/>
        </g>
      </g>
    </g>
  </g>
</svg>
