<svg id="Icon" xmlns="http://www.w3.org/2000/svg" xmlns:xlink="http://www.w3.org/1999/xlink" width="21.101" height="21.41" viewBox="0 0 21.101 21.41">
  <defs>
    <clipPath id="clip-path">
      <path id="Shape" d="M50.617,39.281a2.92,2.92,0,0,1,2.919,3.359L52.193,51.4a2.917,2.917,0,0,1-2.909,2.482H38.308a.973.973,0,0,1-.973-.973V42.2a.973.973,0,0,1,.084-.4l3.893-8.759a.973.973,0,0,1,.889-.578,3.893,3.893,0,0,1,3.893,3.893v2.92ZM39.281,51.932H49.3a.974.974,0,0,0,.973-.829l1.343-8.757a.973.973,0,0,0-.984-1.119H45.12a.973.973,0,0,1-.973-.973V36.361a1.947,1.947,0,0,0-1.355-1.855l-3.511,7.9Zm-1.946-8.759H35.388a.973.973,0,0,0-.973.973v6.812a.973.973,0,0,0,.973.973h1.946Zm.973,10.7h-2.92a2.92,2.92,0,0,1-2.92-2.92V44.147a2.92,2.92,0,0,1,2.92-2.92h2.92a.973.973,0,0,1,.973.973v10.7A.973.973,0,0,1,38.308,53.878Z" transform="translate(-32.469 -32.469)" fill="#0e60be"/>
    </clipPath>
    <filter id="_Icon_Color" x="-61" y="-43.295" width="144" height="144" filterUnits="userSpaceOnUse">
      <feOffset dy="18" input="SourceAlpha"/>
      <feGaussianBlur stdDeviation="20" result="blur"/>
      <feFlood flood-color="#6b67d2" flood-opacity="0.349"/>
      <feComposite operator="in" in2="blur"/>
      <feComposite in="SourceGraphic"/>
    </filter>
  </defs>
  <g id="Symbols">
    <g id="Mask_Group_229" data-name="Mask Group 229" clip-path="url(#clip-path)">
      <g transform="matrix(1, 0, 0, 1, 0, 0)" filter="url(#_Icon_Color)">
        <rect id="_Icon_Color-2" data-name="↳ Icon Color" width="24" height="24" transform="translate(-1 -1.29)" fill="#0e60be"/>
      </g>
    </g>
  </g>
</svg>
