<svg id="Icon" xmlns="http://www.w3.org/2000/svg" xmlns:xlink="http://www.w3.org/1999/xlink" width="20" height="22" viewBox="0 0 20 22">
  <defs>
    <clipPath id="clip-path">
      <path id="Combined_Shape" data-name="Combined Shape" d="M3,22a3,3,0,0,1-3-3V12A3,3,0,0,1,3,9H4V6A6,6,0,0,1,16,6V9h1a3,3,0,0,1,3,3v7a3,3,0,0,1-3,3ZM2,12v7a1,1,0,0,0,1,1H17a1,1,0,0,0,1-1V12a1,1,0,0,0-1-1H3A1,1,0,0,0,2,12ZM14,9V6A4,4,0,1,0,6,6V9Z" fill="#0e60be"/>
    </clipPath>
    <filter id="_Icon_Color" x="-62" y="-43" width="144" height="144" filterUnits="userSpaceOnUse">
      <feOffset dy="18" input="SourceAlpha"/>
      <feGaussianBlur stdDeviation="20" result="blur"/>
      <feFlood flood-color="#6b67d2" flood-opacity="0.349"/>
      <feComposite operator="in" in2="blur"/>
      <feComposite in="SourceGraphic"/>
    </filter>
  </defs>
  <g id="Group_179" data-name="Group 179">
    <path id="Combined_Shape-2" data-name="Combined Shape" d="M3,22a3,3,0,0,1-3-3V12A3,3,0,0,1,3,9H4V6A6,6,0,0,1,16,6V9h1a3,3,0,0,1,3,3v7a3,3,0,0,1-3,3ZM2,12v7a1,1,0,0,0,1,1H17a1,1,0,0,0,1-1V12a1,1,0,0,0-1-1H3A1,1,0,0,0,2,12ZM14,9V6A4,4,0,1,0,6,6V9Z" fill="#0e60be"/>
    <g id="Mask_Group_179" data-name="Mask Group 179" clip-path="url(#clip-path)">
      <g transform="matrix(1, 0, 0, 1, 0, 0)" filter="url(#_Icon_Color)">
        <rect id="_Icon_Color-2" data-name="↳ Icon Color" width="24" height="24" transform="translate(-2 -1)" fill="#0e60be"/>
      </g>
    </g>
  </g>
</svg>
