<svg id="Icon" xmlns="http://www.w3.org/2000/svg" xmlns:xlink="http://www.w3.org/1999/xlink" width="21.888" height="21.927" viewBox="0 0 21.888 21.927">
  <defs>
    <clipPath id="clip-path">
      <path id="Shape" d="M18.882,21.927c-.093,0-.188,0-.282-.013a20.863,20.863,0,0,1-9.058-3.22,20.609,20.609,0,0,1-6.3-6.3A20.906,20.906,0,0,1,.012,3.27,3,3,0,0,1,3,0h3.02A3,3,0,0,1,8.989,2.589a11.856,11.856,0,0,0,.645,2.589,3.012,3.012,0,0,1-.679,3.169l-.717.716a15.109,15.109,0,0,0,4.586,4.586l-.554.553,1.2-.162c-.227-.129-.445-.261-.648-.391l.721-.721a3,3,0,0,1,3.163-.676,11.9,11.9,0,0,0,2.6.646,3,3,0,0,1,2.58,3.031v2.985a3,3,0,0,1-3.006,3.011ZM3,2a1,1,0,0,0-.737.326A.987.987,0,0,0,2,3.075a18.9,18.9,0,0,0,2.92,8.24,18.384,18.384,0,0,0,5.7,5.7A18.85,18.85,0,0,0,18.8,19.924c.03,0,.06,0,.09,0a1,1,0,0,0,1-1.008v-3a1.01,1.01,0,0,0-.85-1.039,13.906,13.906,0,0,1-3.031-.755,1,1,0,0,0-1.051.22l-1.27,1.27a1,1,0,0,1-1.2.163A17,17,0,0,1,6.109,9.4a1,1,0,0,1,.162-1.2L7.537,6.937A1.007,1.007,0,0,0,7.761,5.88,13.788,13.788,0,0,1,7.008,2.86a1,1,0,0,0-1-.86H3Z" transform="translate(0 0)" fill="#0e60be"/>
    </clipPath>
    <filter id="_Icon_Color" x="-61" y="-43" width="144" height="144" filterUnits="userSpaceOnUse">
      <feOffset dy="18" input="SourceAlpha"/>
      <feGaussianBlur stdDeviation="20" result="blur"/>
      <feFlood flood-color="#6b67d2" flood-opacity="0.349"/>
      <feComposite operator="in" in2="blur"/>
      <feComposite in="SourceGraphic"/>
    </filter>
  </defs>
  <g id="Group_172" data-name="Group 172">
    <path id="Shape-2" data-name="Shape" d="M0,.553,1.2.391Q.872.2.553,0Z" transform="translate(12.271 13.65)" fill="#0e60be"/>
    <g id="Mask_Group_172" data-name="Mask Group 172" clip-path="url(#clip-path)">
      <g transform="matrix(1, 0, 0, 1, 0, 0)" filter="url(#_Icon_Color)">
        <rect id="_Icon_Color-2" data-name="↳ Icon Color" width="24" height="24" transform="translate(-1 -1)" fill="#0e60be"/>
      </g>
    </g>
  </g>
</svg>
