<svg id="Message" xmlns="http://www.w3.org/2000/svg" xmlns:xlink="http://www.w3.org/1999/xlink" width="40" height="40" viewBox="0 0 40 40">
  <defs>
    <clipPath id="clip-path">
      <path id="Shape" d="M12.4,14.61a13.848,13.848,0,0,1-6.039-2.147,13.647,13.647,0,0,1-4.2-4.2A13.878,13.878,0,0,1,.008,2.18,2,2,0,0,1,2,0H3.992a2,2,0,0,1,2,1.726,7.9,7.9,0,0,0,.429,1.726,2,2,0,0,1-.452,2.112l-.479.478A10,10,0,0,0,8.549,9.1l.481-.481a2,2,0,0,1,2.109-.451,7.859,7.859,0,0,0,1.733.431,2,2,0,0,1,1.72,2.021v1.99a2,2,0,0,1-2.006,2.007Q12.493,14.618,12.4,14.61Z" transform="translate(0 0)"/>
    </clipPath>
    <filter id="_Icon_Color" x="-48" y="-30" width="136" height="136" filterUnits="userSpaceOnUse">
      <feOffset dy="18" input="SourceAlpha"/>
      <feGaussianBlur stdDeviation="20" result="blur"/>
      <feFlood flood-opacity="0.078"/>
      <feComposite operator="in" in2="blur"/>
      <feComposite in="SourceGraphic"/>
    </filter>
  </defs>
  <circle id="Oval" cx="20" cy="20" r="20" fill="#0e60be"/>
  <g id="Icon_message-circle" data-name="Icon / message-circle" transform="translate(12.667 12.667)">
    <path id="Shape-2" data-name="Shape" d="M12.4,14.61a13.848,13.848,0,0,1-6.039-2.147,13.647,13.647,0,0,1-4.2-4.2A13.878,13.878,0,0,1,.008,2.18,2,2,0,0,1,2,0H3.992a2,2,0,0,1,2,1.726,7.9,7.9,0,0,0,.429,1.726,2,2,0,0,1-.452,2.112l-.479.478A10,10,0,0,0,8.549,9.1l.481-.481a2,2,0,0,1,2.109-.451,7.859,7.859,0,0,0,1.733.431,2,2,0,0,1,1.72,2.021v1.99a2,2,0,0,1-2.006,2.007Q12.493,14.618,12.4,14.61Z" transform="translate(0 0)"/>
    <g id="Icon_message-circle-2" data-name="Icon / message-circle" clip-path="url(#clip-path)">
      <g transform="matrix(1, 0, 0, 1, -12.67, -12.67)" filter="url(#_Icon_Color)">
        <rect id="_Icon_Color-2" data-name="↳ Icon Color" width="16" height="16" transform="translate(12 12)" fill="#fafafa"/>
      </g>
    </g>
  </g>
</svg>
