<svg id="motorcycle" xmlns="http://www.w3.org/2000/svg" width="34.601" height="19.223" viewBox="0 0 34.601 19.223">
  <path id="Path_98719" data-name="Path 98719" d="M34.554,11.713a6.521,6.521,0,0,1-.33,2.981,6.615,6.615,0,0,1-3.867,4.047,6.678,6.678,0,0,1-7.148-1.412,6.441,6.441,0,0,1-2.02-4.115,6.536,6.536,0,0,1,.413-3.161,6.738,6.738,0,0,1,1.78-2.56L22.315,5.887A8.624,8.624,0,0,0,20.048,8.8a8.323,8.323,0,0,0-.826,3.664.98.98,0,0,1-.278.7.9.9,0,0,1-.683.293H13.38a6.5,6.5,0,0,1-2.238,4.115,6.5,6.5,0,0,1-4.415,1.652,6.479,6.479,0,0,1-4.753-1.975A6.479,6.479,0,0,1,0,12.494,6.479,6.479,0,0,1,1.975,7.741,6.479,6.479,0,0,1,6.728,5.767a6.78,6.78,0,0,1,2.283.405l.36-.676A6.6,6.6,0,0,0,4.805,3.844H3.844a.924.924,0,0,1-.676-.285.943.943,0,0,1,0-1.352.924.924,0,0,1,.676-.285H5.767a11.026,11.026,0,0,1,2.177.2A6.9,6.9,0,0,1,9.693,2.7a11.818,11.818,0,0,1,1.074.593q.33.218.766.548h9.416L19.672,1.922H16.339a.919.919,0,0,1-.736-.338A.929.929,0,0,1,15.392.8a.9.9,0,0,1,.345-.571A1.015,1.015,0,0,1,16.384,0h3.8a.933.933,0,0,1,.8.42L22.03,2,23.742.285A.941.941,0,0,1,24.433,0h1.517a.924.924,0,0,1,.676.285.924.924,0,0,1,.285.676V2.883a.924.924,0,0,1-.285.676.924.924,0,0,1-.676.285H23.261l1.727,2.583a6.7,6.7,0,0,1,7.794,1.479A6.584,6.584,0,0,1,34.554,11.713ZM6.728,17.3a4.655,4.655,0,0,0,3.048-1.089,4.713,4.713,0,0,0,1.667-2.756H6.728A.935.935,0,0,1,5.9,12.99a.918.918,0,0,1-.015-.946l2.208-4.16a5.118,5.118,0,0,0-1.367-.2A4.627,4.627,0,0,0,3.334,9.1a4.627,4.627,0,0,0-1.412,3.394,4.627,4.627,0,0,0,1.412,3.394A4.627,4.627,0,0,0,6.728,17.3Zm21.144,0a4.82,4.82,0,0,0,4.805-4.805,4.82,4.82,0,0,0-4.805-4.805,4.935,4.935,0,0,0-1.817.36l2.613,3.9a.968.968,0,0,1,.15.736.88.88,0,0,1-.405.6.889.889,0,0,1-.541.165.879.879,0,0,1-.8-.435l-2.613-3.9a4.786,4.786,0,0,0,.015,6.773A4.627,4.627,0,0,0,27.872,17.3Z" fill="#0e60be"/>
</svg>
