<svg xmlns="http://www.w3.org/2000/svg" xmlns:xlink="http://www.w3.org/1999/xlink" width="16.5" height="16.497" viewBox="0 0 16.5 16.497">
  <defs>
    <clipPath id="clip-path">
      <path id="Shape" d="M6.3,15.377a.75.75,0,0,1,.649-1.127H9.547a.75.75,0,0,1,.649,1.127,2.251,2.251,0,0,1-3.892,0ZM.75,12.75a.75.75,0,0,1,0-1.5,1.5,1.5,0,0,0,1.5-1.5V6a6,6,0,1,1,12,0V9.75a1.5,1.5,0,0,0,1.5,1.5.75.75,0,0,1,0,1.5Z" transform="translate(0.75 0.75)"/>
    </clipPath>
    <filter id="_Icon_Color" x="-60.75" y="-42.75" width="138" height="138" filterUnits="userSpaceOnUse">
      <feOffset dy="18" input="SourceAlpha"/>
      <feGaussianBlur stdDeviation="20" result="blur"/>
      <feFlood flood-opacity="0.078"/>
      <feComposite operator="in" in2="blur"/>
      <feComposite in="SourceGraphic"/>
    </filter>
  </defs>
  <g id="_1_Right_Icon" data-name="1 Right Icon" transform="translate(-0.75 -0.75)">
    <path id="Shape-2" data-name="Shape" d="M6.3,15.377a.75.75,0,0,1,.649-1.127H9.547a.75.75,0,0,1,.649,1.127,2.251,2.251,0,0,1-3.892,0ZM.75,12.75a.75.75,0,0,1,0-1.5,1.5,1.5,0,0,0,1.5-1.5V6a6,6,0,1,1,12,0V9.75a1.5,1.5,0,0,0,1.5,1.5.75.75,0,0,1,0,1.5Z" transform="translate(0.75 0.75)"/>
    <g id="_1_Right_Icon-2" data-name="1 Right Icon" clip-path="url(#clip-path)">
      <g transform="matrix(1, 0, 0, 1, 0.75, 0.75)" filter="url(#_Icon_Color)">
        <rect id="_Icon_Color-2" data-name="↳ Icon Color" width="18" height="18" transform="translate(-0.75 -0.75)" fill="#fafafa"/>
      </g>
    </g>
  </g>
</svg>
