<svg xmlns="http://www.w3.org/2000/svg" width="10.892" height="10.866" viewBox="0 0 10.892 10.866">
  <g id="time" transform="translate(0 -0.333)" opacity="0.3">
    <path id="Path_98716" data-name="Path 98716" d="M5.446.333A5.248,5.248,0,0,1,9.3,1.928a5.233,5.233,0,0,1,1.594,3.839A5.233,5.233,0,0,1,9.3,9.605,5.248,5.248,0,0,1,5.446,11.2,5.248,5.248,0,0,1,1.594,9.605,5.233,5.233,0,0,1,0,5.766,5.233,5.233,0,0,1,1.594,1.928,5.248,5.248,0,0,1,5.446.333Zm0,9.795A4.189,4.189,0,0,0,8.519,8.853,4.2,4.2,0,0,0,9.795,5.766,4.2,4.2,0,0,0,8.519,2.68,4.189,4.189,0,0,0,5.446,1.4,4.189,4.189,0,0,0,2.372,2.68,4.2,4.2,0,0,0,1.1,5.766,4.2,4.2,0,0,0,2.372,8.853,4.189,4.189,0,0,0,5.446,10.128Zm.268-7.091V5.894L8.162,7.348l-.408.689L4.9,6.3V3.037Z"/>
  </g>
</svg>
