<svg xmlns="http://www.w3.org/2000/svg" width="28.097" height="28.481" viewBox="0 0 28.097 28.481">
  <g id="Work" transform="translate(1.279 1)">
    <path id="Stroke_1" data-name="Stroke 1" d="M.419,3.643V0" transform="translate(12.35 15.856)" fill="none" stroke="#0e60be" stroke-linecap="round" stroke-linejoin="round" stroke-width="2" stroke-dasharray="0 0"/>
    <path id="Stroke_2" data-name="Stroke 2" d="M25.308,0l-.04.029a24.286,24.286,0,0,1-12.62,3.317A24.231,24.231,0,0,1,.042.029L0,0" transform="translate(0.114 12.514)" fill="none" stroke="#0e60be" stroke-linecap="round" stroke-linejoin="round" stroke-width="2" stroke-dasharray="0 0"/>
    <path id="Stroke_4" data-name="Stroke 4" d="M12.768,0c9.577,0,12.768,2.843,12.768,11.371S22.346,22.742,12.768,22.742,0,19.9,0,11.371,3.192,0,12.768,0Z" transform="translate(0 3.739)" fill="none" stroke="#0e60be" stroke-linecap="round" stroke-linejoin="round" stroke-width="2" stroke-dasharray="0 0"/>
    <path id="Stroke_6" data-name="Stroke 6" d="M9.045,4.046V3.173A3.028,3.028,0,0,0,6.189,0H2.856A3.028,3.028,0,0,0,0,3.173v.873" transform="translate(8.246)" fill="none" stroke="#0e60be" stroke-linecap="round" stroke-linejoin="round" stroke-width="2" stroke-dasharray="0 0"/>
  </g>
</svg>
